<?xml version="1.0" encoding="UTF-8"?> <svg xmlns="http://www.w3.org/2000/svg" width="40" height="40" viewBox="0 0 40 40" fill="none"><path d="M14.2736 22.7329C13.6742 21.5342 12.4693 20.7896 11.1291 20.7896H8.33789L9.31922 22.7524C9.91859 23.9512 11.1235 24.6958 12.4637 24.6958H15.2549L14.2736 22.7329ZM28.8699 20.7896C27.5298 20.7896 26.3248 21.5342 25.7254 22.733L24.7441 24.6958H27.5354C28.8755 24.6958 30.0805 23.9512 30.6799 22.7524L31.6612 20.7896H28.8699Z" fill="#56E39F"></path><path d="M37.9995 10.586C35.6515 12.934 32.5296 14.2271 29.209 14.2271C25.7849 14.2271 22.5491 15.4501 20 17.6898C17.451 15.4501 14.2151 14.2271 10.791 14.2271C7.47039 14.2271 4.34852 12.934 2.00047 10.586L0 8.58545V19.2272C0 22.485 1.26711 25.5462 3.56781 27.8469C5.86852 30.1476 8.92969 31.4147 12.1875 31.4147C15.4448 31.4147 18.4032 29.6844 20 26.8728C21.5969 29.6845 24.5552 31.4147 27.8125 31.4147C31.0703 31.4147 34.1315 30.1476 36.4322 27.8469C38.7329 25.5462 40 22.485 40 19.2272V8.58545L37.9995 10.586ZM37.6562 19.2272C37.6562 24.6551 33.2404 29.0709 27.8125 29.0709C25.3076 29.0709 23.042 27.6869 21.8995 25.4589C21.5345 24.7473 20.8067 24.3053 20 24.3053C19.1933 24.3053 18.4654 24.7473 18.1005 25.459C16.9581 27.6869 14.6924 29.0709 12.1875 29.0709C6.75961 29.0709 2.34375 24.6551 2.34375 19.2272V13.9198C3.21692 14.5279 4.15336 15.0397 5.13672 15.4462C6.93852 16.1926 8.84086 16.5709 10.791 16.5709C13.8976 16.5709 16.818 17.7807 19.0147 19.9772L20 20.9626L20.9852 19.9772C23.1819 17.7806 26.1024 16.5708 29.209 16.5708C31.1591 16.5708 33.0616 16.1924 34.8633 15.4462C35.8466 15.0396 36.7831 14.5279 37.6562 13.9197V19.2272Z" fill="#56E39F"></path></svg> 