<?xml version="1.0" encoding="UTF-8"?> <svg xmlns="http://www.w3.org/2000/svg" width="56" height="56" viewBox="0 0 56 56" fill="none"><mask id="mask0_2709_3244" style="mask-type:luminance" maskUnits="userSpaceOnUse" x="0" y="0" width="56" height="56"><path d="M0 0H56V56H0V0Z" fill="white"></path></mask><g mask="url(#mask0_2709_3244)"><path d="M34.4531 29.75C34.4531 34.2804 30.7804 37.9531 26.25 37.9531C21.7196 37.9531 18.0469 34.2804 18.0469 29.75C18.0469 25.2196 21.7196 21.5469 26.25 21.5469C30.7804 21.5469 34.4531 25.2196 34.4531 29.75Z" stroke="#56E39F" stroke-width="2" stroke-miterlimit="10"></path><path d="M42.6562 29.75C42.6562 38.811 35.3109 46.1562 26.25 46.1562C17.189 46.1562 9.84375 38.811 9.84375 29.75C9.84375 20.6891 17.189 13.3438 26.25 13.3438C35.3109 13.3438 42.6562 20.6891 42.6562 29.75Z" stroke="#56E39F" stroke-width="2" stroke-miterlimit="10"></path><path d="M47.2206 16.8649C49.5283 20.6126 50.8594 25.0258 50.8594 29.75C50.8594 43.3413 39.8413 54.3594 26.25 54.3594C12.6586 54.3594 1.64062 43.3413 1.64062 29.75C1.64062 16.1586 12.6586 5.14063 26.25 5.14063C30.9741 5.14063 35.3874 6.47172 39.135 8.77932" stroke="#56E39F" stroke-width="2" stroke-miterlimit="10"></path><path d="M26.25 29.75L37.8509 18.1491" stroke="#56E39F" stroke-width="2" stroke-miterlimit="10"></path><path d="M37.8506 18.1494L47.2199 16.8655L53.0357 11.0498L47.1377 8.86227L44.9502 2.96434L39.1345 8.78013L37.8506 18.1494Z" stroke="#56E39F" stroke-width="2" stroke-miterlimit="10"></path></g></svg> 