<?xml version="1.0" encoding="UTF-8"?> <svg xmlns="http://www.w3.org/2000/svg" width="40" height="40" viewBox="0 0 40 40" fill="none"><path d="M26.8482 23.5664L25.1068 24.2635V40L37.0037 35.2412L34.4062 16.0484C33.769 10.2595 29.8023 5.65438 24.6685 3.91236L25.0804 0H14.9205L15.3325 3.9144C10.0148 5.72846 6.21259 10.4401 5.59462 16.0484L2.99707 35.2412L14.8939 40V24.2635L13.1523 23.5663C12.5619 23.3301 12.2632 22.6536 12.4864 22.0582L13.1287 20.3455L15.9746 21.5652C16.5688 22.706 17.6014 23.523 18.8221 23.8455V30.7175H21.1789V23.8455C22.3996 23.523 23.4322 22.706 24.0264 21.5652L26.8723 20.3455L27.5146 22.0582C27.7377 22.6536 27.4389 23.3301 26.8482 23.5664ZM22.4624 2.35684L21.4535 11.9413H18.5474L17.5385 2.35684H22.4624ZM27.4638 25.8586L27.7239 25.7545C29.5097 25.0401 30.397 23.0326 29.7212 21.2307L28.2124 17.2069L22.2214 19.7745L22.0429 20.239C21.3241 22.1094 18.6763 22.1084 17.958 20.239L17.7795 19.7745L11.7884 17.2069L10.2796 21.2307C9.60432 23.0314 10.49 25.0397 12.2767 25.7545L12.5371 25.8587V36.5189L5.57923 33.7357C5.59824 33.595 7.93017 16.3661 7.93591 16.3193C8.42896 11.7999 11.3899 7.97335 15.5868 6.32945L16.4256 14.2982H23.5753L24.4142 6.32898C28.5661 7.95748 31.5744 11.8196 32.065 16.3192C32.0676 16.343 31.9702 15.6213 34.4217 33.7357L27.4638 36.5189V25.8586H27.4638Z" fill="#56E39F"></path></svg> 