<?xml version="1.0" encoding="UTF-8"?> <svg xmlns="http://www.w3.org/2000/svg" width="56" height="56" viewBox="0 0 56 56" fill="none"><g clip-path="url(#clip0_2709_3264)"><mask id="mask0_2709_3264" style="mask-type:luminance" maskUnits="userSpaceOnUse" x="0" y="0" width="56" height="56"><path d="M0 0.000160217H55.9998V56H0V0.000160217Z" fill="white"></path></mask><g mask="url(#mask0_2709_3264)"><path d="M54.3592 28.0001C54.3592 42.4975 42.4974 54.3594 27.9999 54.3594C13.5024 54.3594 1.64062 42.4975 1.64062 28.0001C1.64062 13.5027 13.5024 1.64079 27.9999 1.64079C42.4974 1.64079 54.3592 13.5027 54.3592 28.0001Z" stroke="#56E39F" stroke-width="2" stroke-miterlimit="10"></path><path d="M28 54.3594V1.64079" stroke="#56E39F" stroke-width="2" stroke-miterlimit="10"></path><path d="M41.1249 28.0001C41.1249 42.4975 35.2487 54.3594 28 54.3594C20.7513 54.3594 14.875 42.4975 14.875 28.0001C14.875 13.5027 20.7513 1.64079 28 1.64079C35.2487 1.64079 41.1249 13.5027 41.1249 28.0001Z" stroke="#56E39F" stroke-width="2" stroke-miterlimit="10"></path><path d="M54.3592 28H1.64062" stroke="#56E39F" stroke-width="2" stroke-miterlimit="10"></path><path d="M49.706 13.2344H6.29297" stroke="#56E39F" stroke-width="2" stroke-miterlimit="10"></path><path d="M49.706 42.7656H6.29297" stroke="#56E39F" stroke-width="2" stroke-miterlimit="10"></path></g></g><defs><clipPath id="clip0_2709_3264"><rect width="56" height="56" fill="white"></rect></clipPath></defs></svg> 