<?xml version="1.0" encoding="UTF-8"?> <svg xmlns="http://www.w3.org/2000/svg" width="40" height="40" viewBox="0 0 40 40" fill="none"><path d="M14.4592 9.99146L14.4589 9.99184C12.7803 11.9102 11.2558 13.6676 10.1519 14.9544C9.79384 15.3719 9.4809 15.7387 9.22176 16.0449C9.31031 16.0775 9.40296 16.1114 9.49944 16.1465C10.428 16.4844 11.6764 16.9193 12.9444 17.3497C14.2121 17.7801 15.493 18.2037 16.486 18.519C16.9834 18.6769 17.4028 18.8058 17.71 18.8944C17.7227 18.8981 17.7352 18.9017 17.7475 18.9052C17.7527 18.8998 17.7579 18.8944 17.7632 18.8888C18.0084 18.6321 18.3536 18.2524 18.7777 17.7736C19.6232 16.8191 20.7568 15.5001 21.9802 14.0506C21.9808 14.0499 21.9815 14.0491 21.9821 14.0483L25.8175 9.45044L23.0042 6.65877C23.0038 6.65836 23.0034 6.65794 23.0029 6.65753C22.0616 5.72943 21.1738 4.87479 20.5093 4.24671C20.3345 4.0814 20.1757 3.93242 20.036 3.80236C19.7207 4.12819 19.3027 4.57476 18.8032 5.11932C17.6636 6.36159 16.1225 8.08857 14.4592 9.99146ZM18.1377 19.0078C18.1487 19.0099 18.1471 19.0091 18.1362 19.0075C18.1367 19.0076 18.1372 19.0077 18.1377 19.0078ZM19.4395 3.26155C19.4236 3.24881 19.4268 3.25253 19.4438 3.26504C19.4419 3.26347 19.4404 3.26232 19.4395 3.26155Z" stroke="#56E39F" stroke-width="2"></path><path d="M25.912 19.1021L25.912 19.1021L25.9071 19.107C24.9659 20.0482 24.1277 20.9129 23.5345 21.5488C23.5 21.5858 23.4664 21.6219 23.4337 21.6571C23.4367 21.6586 23.4396 21.66 23.4426 21.6615C24.0971 21.9938 24.982 22.4395 25.9405 22.9188L25.9405 22.9188L25.9432 22.9202L28.7875 24.3532L30.9694 22.1496L30.9694 22.1496L30.9728 22.1461L32.9857 20.1332L31.0795 18.227C30.3826 17.5301 29.7149 16.8953 29.2094 16.4384C29.1097 16.3483 29.0175 16.2662 28.9338 16.1928C28.7808 16.3277 28.6003 16.4911 28.3961 16.6803C27.7327 17.2947 26.8503 18.1505 25.912 19.1021Z" stroke="#56E39F" stroke-width="2"></path><path d="M22.0432 33.9648L22.0432 33.9648L22.0477 33.9592C22.7199 33.1252 23.4255 32.2449 24.035 31.4847C24.7216 30.6283 25.286 29.9242 25.5431 29.6099L25.5855 29.5572L17.0282 25.9897L17.0267 25.9891C13.8002 24.6381 10.8016 23.386 8.80345 22.5552C8.9319 22.7174 9.0651 22.8853 9.20263 23.0584C10.5219 24.7191 12.2316 26.8475 13.9304 28.9478C15.6294 31.0481 17.3156 33.1181 18.588 34.662C19.1699 35.3681 19.6633 35.9617 20.0309 36.3971C20.0713 36.3508 20.1133 36.3026 20.1567 36.2524C20.6593 35.6715 21.3303 34.8625 22.0432 33.9648Z" stroke="#56E39F" stroke-width="2"></path></svg> 