<?xml version="1.0" encoding="UTF-8"?> <svg xmlns="http://www.w3.org/2000/svg" width="24" height="17" viewBox="0 0 24 17" fill="none"><path d="M21.0275 2.52667C19.3762 1.24665 17.3945 0.606674 15.3028 0.5L14.9725 0.820023C16.844 1.24665 18.4954 2.09997 20.0367 3.27332C18.1651 2.31332 16.0734 1.67335 13.8715 1.46C13.211 1.35332 12.6605 1.35332 12 1.35332C11.3395 1.35332 10.789 1.35332 10.1285 1.46C7.9266 1.67335 5.83485 2.31332 3.9633 3.27332C5.50455 2.09997 7.15597 1.24665 9.02752 0.820023L8.69723 0.5C6.60547 0.606674 4.62383 1.24665 2.97247 2.52667C1.10092 5.94003 0.110092 9.78002 0 13.7266C1.65135 15.4333 3.9633 16.5 6.38535 16.5C6.38535 16.5 7.15597 15.6467 7.7064 14.9C6.27525 14.58 4.95412 13.8333 4.0734 12.66C4.84403 13.0866 5.61465 13.5133 6.38535 13.8333C7.37617 14.26 8.367 14.4733 9.35783 14.6867C10.2386 14.7933 11.1193 14.9 12 14.9C12.8807 14.9 13.7614 14.7933 14.6422 14.6867C15.633 14.4733 16.6238 14.26 17.6147 13.8333C18.3854 13.5133 19.156 13.0866 19.9266 12.66C19.0459 13.8333 17.7248 14.58 16.2936 14.9C16.844 15.6467 17.6147 16.5 17.6147 16.5C20.0367 16.5 22.3486 15.4333 24 13.7266C23.8899 9.78002 22.8991 5.94003 21.0275 2.52667ZM8.367 11.8066C7.26608 11.8066 6.27525 10.8466 6.27525 9.67335C6.27525 8.5 7.26608 7.54 8.367 7.54C9.46793 7.54 10.4587 8.5 10.4587 9.67335C10.4587 10.8466 9.46793 11.8066 8.367 11.8066ZM15.633 11.8066C14.5321 11.8066 13.5413 10.8466 13.5413 9.67335C13.5413 8.5 14.5321 7.54 15.633 7.54C16.7339 7.54 17.7248 8.5 17.7248 9.67335C17.7248 10.8466 16.7339 11.8066 15.633 11.8066Z" fill="white"></path></svg> 