<?xml version="1.0" encoding="UTF-8"?> <svg xmlns="http://www.w3.org/2000/svg" width="20" height="21" viewBox="0 0 20 21" fill="none"><g clip-path="url(#clip0_2582_115)"><path d="M0.417454 4.21703C3.16238 6.54168 7.97886 10.6314 9.39449 11.9066C9.58453 12.0788 9.78835 12.1663 9.99996 12.1663C10.2111 12.1663 10.4146 12.0796 10.6042 11.9083C12.021 10.6318 16.8375 6.54168 19.5825 4.21703C19.7534 4.07258 19.7794 3.81867 19.6411 3.64207C19.3212 3.23398 18.8444 3 18.3333 3H1.66663C1.15558 3 0.678665 3.23398 0.35886 3.64211C0.220501 3.81867 0.246556 4.07258 0.417454 4.21703Z" fill="white"></path><path d="M19.7583 5.47636C19.6863 5.44277 19.6061 5.43058 19.5273 5.44126C19.4485 5.45194 19.3745 5.48503 19.314 5.5366C16.2699 8.11714 12.3848 11.4249 11.1625 12.5263C10.4764 13.1456 9.5243 13.1456 8.83664 12.5255C7.53375 11.3516 3.17094 7.64269 0.686016 5.53656C0.625384 5.48523 0.551352 5.4523 0.472634 5.44163C0.393916 5.43096 0.313787 5.44299 0.24168 5.47632C0.169547 5.50974 0.108471 5.56309 0.0656513 5.63007C0.0228316 5.69705 5.28665e-05 5.77487 0 5.85437L0 16.3329C0 17.2521 0.747461 17.9996 1.66668 17.9996H18.3334C19.2525 17.9996 20 17.2521 20 16.3329V5.85437C20 5.77486 19.9773 5.69702 19.9344 5.63003C19.8916 5.56305 19.8305 5.50972 19.7583 5.47636Z" fill="white"></path></g><defs><clipPath id="clip0_2582_115"><rect width="20" height="20" fill="white" transform="translate(0 0.5)"></rect></clipPath></defs></svg> 